<svg width="213" height="517" viewBox="0 0 213 517" fill="none" xmlns="http://www.w3.org/2000/svg">
<mask id="mask0_105_193" style="mask-type:alpha" maskUnits="userSpaceOnUse" x="0" y="0" width="513" height="517">
<path opacity="0.05" fill-rule="evenodd" clip-rule="evenodd" d="M428.061 263.555C426.849 356.856 350.607 432.365 256.5 432.365C162.393 432.365 86.3865 357.102 84.9388 263.8L84.9388 0.480879L106.417 0.480879L106.417 261.385C106.417 343.862 173.502 410.95 256.5 410.95C339.498 410.95 406.583 343.862 406.583 261.385L406.583 0L428.061 0L428.061 263.544V263.555ZM513 263.555C511.788 403.747 397.414 517 256.5 517C115.586 517 1.44764 403.982 0 263.79L0 0.480879L21.4787 0.480879L21.4787 261.385C21.4787 390.753 126.684 495.595 256.5 495.595C386.316 495.595 491.521 390.753 491.521 261.385L491.521 0L513 0V263.544V263.555ZM470.289 263.555C469.324 380.184 374.016 474.437 256.5 474.437C138.984 474.437 44.1583 380.419 42.7107 263.79L42.7107 0.480879L64.1893 0.480879L64.1893 260.424C64.1893 260.744 64.1893 261.065 64.1893 261.385C64.1893 367.19 150.329 453.032 256.5 453.032C362.671 453.032 448.811 367.19 448.811 261.385C448.811 261.065 448.811 260.744 448.811 260.424L448.811 0L470.289 0L470.289 263.544V263.555ZM385.35 263.555C384.385 333.293 326.952 389.802 256.5 389.802C186.048 389.802 129.097 333.528 127.649 263.8L127.649 0.245783L149.128 0.245783L149.128 261.385C149.128 320.544 197.147 368.397 256.511 368.397C315.875 368.397 363.893 320.544 363.893 261.385L363.893 0L385.372 0L385.372 263.544L385.35 263.555Z" fill="#3D668E"/>
</mask>
<g mask="url(#mask0_105_193)">
<rect x="-1227" y="119" width="1440" height="1118" fill="#3D9386"/>
</g>
</svg>
