<svg width="499" height="495" viewBox="0 0 499 495" fill="none" xmlns="http://www.w3.org/2000/svg">
<path opacity="0.05" fill-rule="evenodd" clip-rule="evenodd" d="M254.379 81.9585C344.432 83.1277 417.312 156.695 417.312 247.5C417.312 338.305 344.669 411.645 254.616 413.041L0.464138 413.041L0.464138 392.316L252.285 392.316C331.89 392.316 396.642 327.586 396.642 247.5C396.642 167.414 331.89 102.684 252.285 102.684L4.67833e-06 102.684L4.92547e-06 81.9585L254.368 81.9585L254.379 81.9585ZM254.379 3.3551e-05C389.69 1.16922 499 111.53 499 247.5C499 383.47 389.917 493.603 254.606 495L0.464137 495L0.464137 474.275L252.285 474.275C377.148 474.275 478.341 372.761 478.341 247.5C478.341 122.239 377.148 20.725 252.285 20.725L5.65567e-06 20.725L5.90282e-06 3.05176e-05L254.368 3.35509e-05L254.379 3.3551e-05ZM254.379 41.2121C366.948 42.1433 457.919 134.107 457.919 247.5C457.919 360.893 367.175 452.391 254.606 453.788L0.464137 453.788L0.464138 433.063L251.357 433.063C251.666 433.063 251.975 433.063 252.285 433.063C354.406 433.063 437.259 349.946 437.259 247.5C437.259 145.054 354.406 61.9371 252.285 61.9371C251.975 61.9371 251.666 61.9371 251.357 61.9371L5.16422e-06 61.9371L5.41137e-06 41.2121L254.368 41.2121L254.379 41.2121ZM254.379 123.171C321.689 124.102 376.23 179.52 376.23 247.5C376.23 315.48 321.916 370.433 254.616 371.829L0.237227 371.829L0.237227 351.104L252.285 351.104C309.384 351.104 355.571 304.771 355.571 247.49C355.571 190.209 309.384 143.875 252.285 143.875L4.18712e-06 143.875L4.43427e-06 123.15L254.368 123.15L254.379 123.171Z" fill="#3D668E"/>
</svg>
