<svg width="602" height="1080" viewBox="0 0 602 1080" fill="none" xmlns="http://www.w3.org/2000/svg">
<mask id="mask0_105_171" style="mask-type:alpha" maskUnits="userSpaceOnUse" x="-469" y="0" width="1071" height="1080">
<path opacity="0.05" fill-rule="evenodd" clip-rule="evenodd" d="M-291.671 529.123C-289.142 334.335 -129.969 176.694 66.5001 176.694C262.97 176.694 421.649 333.822 424.672 528.61L424.672 1078.35L379.83 1078.35L379.83 533.652C379.83 361.464 239.776 221.403 66.5001 221.403C-106.776 221.403 -246.83 361.464 -246.83 533.652L-246.83 1079.35L-291.671 1079.35L-291.671 529.145L-291.671 529.123ZM-469 529.123C-466.47 236.44 -227.689 4.95366e-05 66.5002 7.52554e-05C360.689 0.000100974 598.978 235.949 602 528.632L602 1078.35L557.159 1078.35L557.159 533.652C557.159 263.569 337.519 44.6867 66.5002 44.6867C-204.518 44.6867 -424.158 263.569 -424.158 533.652L-424.158 1079.35L-469 1079.35L-469 529.145L-469 529.123ZM-379.832 529.123C-377.817 285.633 -178.84 88.8602 66.5001 88.8602C311.841 88.8602 509.81 285.142 512.832 528.632L512.832 1078.35L467.991 1078.35L467.991 535.66C467.991 534.99 467.991 534.321 467.991 533.652C467.991 312.762 288.155 133.547 66.5001 133.547C-155.155 133.547 -334.99 312.762 -334.99 533.652C-334.99 534.321 -334.99 534.99 -334.99 535.66L-334.991 1079.35L-379.832 1079.35L-379.832 529.145L-379.832 529.123ZM-202.503 529.123C-200.489 383.529 -80.5832 265.554 66.5001 265.554C213.584 265.554 332.482 383.038 335.504 528.61L335.504 1078.84L290.662 1078.84L290.662 533.652C290.662 410.144 190.413 310.241 66.4777 310.241C-57.4574 310.241 -157.707 410.144 -157.707 533.652L-157.707 1079.35L-202.548 1079.35L-202.548 529.145L-202.503 529.123Z" fill="#3D668E"/>
</mask>
<g mask="url(#mask0_105_171)">
<rect x="2.82446" y="-1553.26" width="3006.32" height="2334.07" fill="#3D9386"/>
</g>
</svg>
